<svg height="112pt" viewBox="-5 0 512 512" width="112pt" xmlns="http://www.w3.org/2000/svg"><path d="m412.53125 144.257812 47.472656 68.921876c21.992188 31.925781 33.765625 69.777343 33.765625 108.542968v127.800782c0 30.363281-24.613281 54.976562-54.976562 54.976562h-268.816407v-182.777344c0-38.765625-11.777343-76.617187-33.765624-108.542968zm0 0" fill="#dd6642"/><path d="m169.976562 321.722656v182.777344h242.554688v-360.242188l-276.320312 68.921876c21.988281 31.925781 33.765624 69.777343 33.765624 108.542968zm0 0" fill="#e7896e"/><path d="m88.738281 144.257812-47.472656 68.921876c-21.988281 31.925781-33.765625 69.777343-33.765625 108.542968v127.800782c0 30.363281 24.613281 54.976562 54.976562 54.976562h268.820313v-182.777344c0-38.765625 11.773437-76.617187 33.761719-108.542968l47.472656-68.921876zm0 0" fill="#f2ad9a"/><path d="m88.738281 144.257812v-70.015624c0-26.183594 21.226563-47.410157 47.410157-47.410157h228.972656c26.183594 0 47.410156 21.226563 47.410156 47.410157v70.015624zm0 0" fill="#f8cfc5"/><path d="m479.476562 486.5-66.945312-84.316406-81.234375 102.316406h107.496094c16.125 0 30.628906-6.941406 40.683593-18zm0 0" fill="#f2ad9a"/><path d="m175.757812 30.28125v97.546875c0 10.75-2.980468 21.285156-8.613281 30.441406l-43.195312 70.191407c-6.433594 10.449218-9.835938 22.480468-9.835938 34.753906v74.769531c0 6.851563 8.230469 10.335937 13.148438 5.566406l19.773437-19.171875 17.96875 17.488282c8.152344 7.9375 21.226563 7.667968 29.046875-.601563l15.96875-16.886719 21.21875 19.773438c4.957031 4.621094 13.035157 1.105468 13.035157-5.671875v-75.265625c0-12.273438 3.40625-24.300782 9.835937-34.753906l43.199219-70.203126c5.632812-9.15625 8.613281-19.691406 8.613281-30.4375v-97.539062c0-12.582031-10.199219-22.78125-22.78125-22.78125h-84.597656c-12.582031 0-22.785157 10.199219-22.785157 22.78125zm0 0" fill="#fcf5af"/><path d="m173.371094 453.847656c-15.519532 0-28.101563-12.578125-28.101563-28.097656v-20.429688c0-4.238281 3.433594-7.671874 7.671875-7.671874h40.859375c4.234375 0 7.671875 3.433593 7.671875 7.671874v20.429688c-.003906 15.519531-12.582031 28.097656-28.101562 28.097656zm0 0" fill="#454545"/><path d="m109.347656 425.75c0-13.183594-13.417968-23.871094-29.972656-23.871094s-29.972656 10.6875-29.972656 23.871094c0 13.179688 13.417968 23.867188 29.972656 23.867188s29.972656-10.6875 29.972656-23.867188zm0 0" fill="#ffd2e3"/><path d="m297.339844 425.75c0-13.183594-13.421875-23.871094-29.972656-23.871094-16.554688 0-29.972657 10.6875-29.972657 23.871094 0 13.179688 13.417969 23.867188 29.972657 23.867188 16.550781 0 29.972656-10.6875 29.972656-23.867188zm0 0" fill="#ffd2e3"/><path d="m297.308594 158.257812c2.699218-4.390624 4.792968-9.101562 6.238281-14h-130.160156c-1.445313 4.902344-3.539063 9.617188-6.242188 14.011719l-43.195312 70.191407c-4.492188 7.296874-7.507813 15.367187-8.917969 23.75h130.160156c1.414063-8.382813 4.425782-16.453126 8.917969-23.75zm0 0" fill="#f4e74d"/><path d="m254.027344 385.195312c-4.144532 0-7.5 3.359376-7.5 7.5v12.453126c0 4.140624 3.355468 7.5 7.5 7.5 4.140625 0 7.5-3.359376 7.5-7.5v-12.453126c0-4.140624-3.359375-7.5-7.5-7.5zm0 0"/><path d="m92.714844 385.195312c-4.144532 0-7.5 3.359376-7.5 7.5v12.453126c0 4.140624 3.355468 7.5 7.5 7.5 4.140625 0 7.5-3.359376 7.5-7.5v-12.453126c0-4.140624-3.359375-7.5-7.5-7.5zm0 0"/><path d="m493.769531 379.074219c4.144531 0 7.5-3.355469 7.5-7.5v-49.851563c0-40.464844-12.132812-79.472656-35.089843-112.796875l-46.148438-67v-67.683593c0-30.277344-24.632812-54.910157-54.910156-54.910157h-53.757813c-4.398437-11.300781-15.386719-19.332031-28.222656-19.332031h-84.601563c-12.835937 0-23.824218 8.03125-28.222656 19.332031h-34.167968c-30.277344 0-54.910157 24.632813-54.910157 54.910157v67.683593l-46.148437 67c-22.957032 33.324219-35.089844 72.332031-35.089844 112.796875v127.800782c0 34.449218 28.027344 62.476562 62.476562 62.476562h376.316407c34.449219 0 62.476562-28.027344 62.476562-62.476562v-44.679688c0-4.140625-3.355469-7.5-7.5-7.5-4.140625 0-7.5 3.359375-7.5 7.5v44.679688c0 9.046874-2.542969 17.507812-6.953125 24.710937l-59.285156-74.667969v-231.199218l33.796875 49.066406c21.222656 30.8125 32.441406 66.875 32.441406 104.289062v49.851563c0 4.144531 3.359375 7.5 7.5 7.5zm-88.738281 20.492187-66.234375 83.425782v-161.269532c0-37.414062 11.214844-73.476562 32.4375-104.289062l33.796875-49.066406zm0-325.324218v62.515624h-92.222656c2.179687-6.6875.613281-102.425781.613281-102.425781h51.699219c22.007812 0 39.910156 17.902344 39.910156 39.910157zm-308.792969 0c0-22.007813 17.902344-39.910157 39.910157-39.910157h32.109374s1.96875 95.054688-.796874 102.425781h-71.222657zm-33.761719 422.757812c-26.179687 0-47.476562-21.296875-47.476562-47.476562v-127.800782c0-37.414062 11.21875-73.476562 32.441406-104.289062l45.238282-65.675782h69.554687c-.46875.871094-21.34375 34.863282-21.34375 34.863282-2.171875 3.527344-1.070313 8.148437 2.457031 10.316406 3.523438 2.171875 8.144532 1.074219 10.316406-2.457031l19.867188-32.28125c6.363281-10.339844 9.726562-22.226563 9.726562-34.371094v-97.546875c0-8.425781 6.855469-15.28125 15.28125-15.28125h84.597657c8.429687 0 15.285156 6.855469 15.285156 15.28125v97.539062c0 9.363282-2.597656 18.53125-7.503906 26.503907l-43.199219 70.207031c-7.160156 11.640625-10.945312 25.015625-10.945312 38.683594 0 0-.015626 75.398437-.011719 75.398437-.042969.070313-21.632813-19.722656-21.632813-19.722656-3.015625-2.808594-7.734375-2.660156-10.5625.335937l-15.96875 16.886719c-2.394531 2.527344-5.625 3.960938-9.105468 4.03125-3.449219.074219-6.765626-1.222656-9.261719-3.652343l-17.96875-17.488282c-2.90625-2.832031-7.539063-2.835937-10.449219-.011718 0 0-20.148438 19.195312-20.191406 19.132812l-.011719-74.910156c0-10.890625 3.015625-21.550782 8.726563-30.824219l6.894531-11.207031c2.167969-3.527344 1.070312-8.148438-2.457031-10.316406-3.53125-2.171876-8.148438-1.070313-10.320313 2.457031l-6.894531 11.207031c-7.164063 11.640625-10.949219 25.015625-10.949219 38.683594v74.769531c0 6.140625 3.652344 11.65625 9.304687 14.046875 5.652344 2.394531 12.15625 1.179688 16.566407-3.09375l14.542969-14.101562 12.746093 12.40625c2.617188 2.546874 9.222657 8.417968 19.820313 8.417968 10.59375 0 17.3125-6.5 19.90625-9.242187l10.855468-11.476563 15.769532 14.699219c4.511718 4.203125 10.828125 5.285156 16.480468 2.828125 5.65625-2.460938 9.171876-7.820312 9.171876-13.988281v-75.265625c0-10.890625 3.015624-21.550782 8.722656-30.824219 0 0 41.433594-62.523437 48.394531-80.632813h89.367187l-39.375 57.167969c-22.957031 33.324219-35.089843 72.332031-35.089843 112.796875v175.277344zm284.351563 0 65.703125-82.757812 56.828125 71.570312c-8.265625 6.972656-18.929687 11.1875-30.566406 11.1875zm0 0"/><path d="m193.800781 390.148438h-40.859375c-8.367187 0-15.171875 6.804687-15.171875 15.171874v20.429688c0 19.628906 15.96875 35.601562 35.601563 35.601562 19.628906 0 35.601562-15.972656 35.601562-35.601562v-20.429688c0-8.367187-6.808594-15.171874-15.171875-15.171874zm.171875 35.601562c-.003906 11.359375-9.242187 20.601562-20.605468 20.601562-11.355469 0-20.597657-9.242187-20.597657-20.601562 0 0 .078125-20.601562.171875-20.601562h40.859375c.09375 0 .171875 20.601562.171875 20.601562zm0 0"/></svg>
